<?xml version="1.0" encoding="utf-8"?>
<!-- Generator: Adobe Illustrator 12.0.0, SVG Export Plug-In  -->
<!DOCTYPE svg PUBLIC "-//W3C//DTD SVG 1.1//EN" "http://www.w3.org/Graphics/SVG/1.1/DTD/svg11.dtd" [
	<!ENTITY ns_flows "http://ns.adobe.com/Flows/1.0/">
	<!ENTITY ns_svg "http://www.w3.org/2000/svg">
	<!ENTITY ns_xlink "http://www.w3.org/1999/xlink">
]>
<svg  version="1.1" xmlns="&ns_svg;" xmlns:xlink="&ns_xlink;" xmlns:a="http://ns.adobe.com/AdobeSVGViewerExtensions/3.0/"
	 width="86" height="78" viewBox="-0.915 -0.516 86 78" enable-background="new -0.915 -0.516 86 78" xml:space="preserve">
<defs>
</defs>
<path fill="#787778" d="M40.876,27.863c2-1.772,4.144-3.469,6.447-5.079l0,0c6.425-4.498,13.015-7.668,19.762-9.512l0,0
	c4.69,3.103,8.426,6.658,11.203,10.666l0,0c-5.34,3.944-12.586,7.296-21.734,10.06l0,0c-3.712,1.122-7.229,2.234-10.676,2.902l0,0
	c0,0-1.153,0.238-2.695,0.559l0,0L40.876,27.863z M68.382,13.006c2.49-0.455,4.691-0.631,6.494-0.631l0,0
	c5.777,0,8.666,1.467,8.666,4.407l0,0c0,1.903-1.48,4.103-4.441,6.615l0,0C76.286,19.463,72.676,15.964,68.382,13.006 M1.936,20.833
	c0-4.846,2.856-9.077,8.575-12.697l0,0c5.717-3.617,12.4-5.427,20.046-5.427l0,0c12.375,0,24.044,3.196,35.01,9.588l0,0
	c-10.028,2.247-18.668,5.725-25.93,10.414l0,0l-1.373-5.71c0,0-0.005-1.022-1.12-0.85l0,0c0,0-0.567,0.189-0.858-0.602l0,0
	c0,0-0.121-0.908-0.893-0.753l0,0l-1.201-5.063c0,0,1.733-0.068,1.373-1.303l0,0c0,0-0.104-0.791-1.287-0.516l0,0L26.52,9.766
	c0,0-1.08,0.207-0.824,1.152l0,0c0,0,0.156,0.908,1.803,0.463l0,0l1.201,4.907c0,0-0.62,0.412-0.445,1.236l0,0
	c0,0,0.154,0.67-0.567,0.875l0,0c0,0-0.789,0.172-0.566,1.201l0,0l2.654,11.018c-1.06,1.042-2.086,2.137-2.886,3.18l0,0
	c-1.05,1.227-2.059,2.487-3.003,3.807l0,0C9.252,35.073,1.936,29.48,1.936,20.833 M8.718,5.688C2.907,9.481,0,14.194,0,19.825l0,0
	c0,9.458,7.815,15.634,23.452,18.52l0,0c-4.293,6.467-6.318,12.772-6.44,18.914l0,0c-0.118,6.132,2.456,10.573,3.282,11.888l0,0
	c0.9,1.432,1.963,2.787,3.234,4.045l0,0c1.559,1.541,3.262,2.775,5.086,3.758l0,0l24.828-0.002c0.44-0.176,0.961-0.499,1.476-0.756
	l0,0c3.483-1.744,6.456-3.463,9.71-6.271l0,0c7.511-6.474,11.275-13.646,11.275-21.515l0,0c0-7.614-3.467-11.42-10.396-11.42l0,0
	c-1.258,0-2.516,0.142-3.747,0.412l0,0c-0.626,0.141-3.273,0.984-3.455,1.201l0,0c-0.111,0.138-0.546,0.861-0.758,1.18l0,0
	c0.485-0.159,3.492-1.207,4.302-1.438l0,0c1.126-0.322,2.296-0.455,3.466-0.455l0,0c2.811,0,5.059,0.832,6.758,2.49l0,0
	c1.692,1.656,2.539,3.889,2.539,6.7l0,0c0,5.33-2.435,10.968-7.309,16.91l0,0c-4.878,5.953-14.164,6.68-19.719,6.607l0,0
	c-6.119-0.082-10.831-0.438-11.988-0.705l0,0l1.384-3.173c0,0,0.304-0.569,1.289-0.882l0,0l13.96-4.996l-1.041-4.363l-22.451,4.57
	c0,0-0.283-2.482-0.191-6.036l0,0c0.06-1.176,0.138-2.521,0.236-3.771l0,0c0.371-3.722,1.234-7.946,3.086-11.619l0,0l1.268,4.907
	c0,0,0.183,0.828,0.875,0.783l0,0c0,0,0.046,0.645,0.759,0.713l0,0l0.461,2.006c0,0-0.621,0.646,0.023,1.266l0,0
	c0,0,0.302,0.393,1.13,0.186l0,0c0,0,0.806,2.188,2.763,3.338l0,0c0,0-0.276,0.301-0.139,0.555l0,0c0,0,0.024,0.253,0.669,0.16l0,0
	l2.995-0.689c0,0,0.714-0.439-0.093-0.83l0,0c0,0,1.221-1.521,1.014-4.285l0,0c0,0,1.06,0,0.992-0.967l0,0c0,0,0-0.691-0.668-0.828
	l0,0l-0.463-1.959c0,0,0.647-0.322,0.393-0.969l0,0c0,0,0.691-0.275,0.392-1.197l0,0l-0.853-3.502l-0.03-0.119
	c1.918-0.334,3.297-0.596,3.297-0.596l0,0c3.4-0.689,6.963-1.609,10.713-2.791l0,0c9.008-2.834,16.121-6.199,21.358-10.097l0,0
	c2.582,3.722,3.877,7.396,3.877,11.012l0,0c0,1.193,0.21,1.789,0.632,1.789l0,0c0.52,0,0.785-0.452,0.785-1.356l0,0
	c0-3.691-1.494-7.721-4.486-12.099l0,0c3.25-2.515,4.873-4.947,4.873-7.285l0,0c0-3.527-3.592-5.289-10.771-5.289l0,0
	c-2.238,0-4.5,0.129-6.628,0.533l0,0C54.663,3.956,42.522,0,30.429,0l0,0C21.769,0,14.53,1.899,8.718,5.688"/>
</svg>
