<svg xmlns="http://www.w3.org/2000/svg" xmlns:xlink="http://www.w3.org/1999/xlink" version="1.0" enable-background="new 0 0 100 100" xml:space="preserve" width="100" height="125"><rect id="backgroundrect" width="100%" height="100%" x="0" y="0" fill="none" stroke="none"/><g class="currentLayer"><title>Layer 1</title><path d="M84.96015941619874,101.30496164703369 c-4.322,0 -7.867,-3.339 -8.188,-7.58 l-0.06800000000000003,-0.6330000000000002 c-0.987,-16.012 -8.757,-28.954 -20.319,-37.816 c0.040000000000000015,-0.3880000000000001 0.06400000000000003,-0.782 0.06400000000000003,-1.187 c0,-2.265 -0.7030000000000002,-4.369 -1.891,-6.106 l13.891,-13.891 l0.6980000000000004,0.6970000000000004 c0.3830000000000001,0.3830000000000001 1.003,0.3830000000000001 1.389,0 l1.482,-1.475 c0.3830000000000001,-0.3880000000000001 0.3830000000000001,-1.008 0,-1.391 l-3.447,-3.4450000000000003 l3.227,-3.185 c0.2950000000000001,0.22600000000000006 0.7040000000000002,0.203 0.9540000000000002,-0.07600000000000003 c0.6370000000000002,-0.54 1.6470000000000002,-0.3990000000000002 2.076,-0.3070000000000001 l0.3580000000000001,0.3660000000000001 c0.4080000000000001,0.4160000000000001 1.068,0.4280000000000001 1.493,0.018000000000000006 c0.4140000000000001,-0.4 0.4230000000000001,-1.076 0.015000000000000006,-1.487 L66.48815941619873,13.353961647033692 C66.07415941619873,12.938961647033691 65.41415941619873,12.93096164703369 64.99915941619874,13.34096164703369 c-0.4200000000000001,0.4080000000000001 -0.4290000000000001,1.072 -0.018000000000000006,1.483 l0.3460000000000002,0.3600000000000001 c0.08000000000000003,0.4480000000000001 0.21100000000000005,1.512 -0.4090000000000001,2.127 c-0.265,0.2900000000000001 -0.24500000000000005,0.7360000000000002 0.04400000000000002,1 c0.006000000000000004,0.005000000000000002 0.013000000000000006,0.005000000000000002 0.017000000000000008,0.008000000000000004 l-3.303,3.262 l-3.457,-3.459 c-0.3840000000000001,-0.3820000000000001 -1.01,-0.3820000000000001 -1.393,0 l-1.478,1.482 c-0.3840000000000001,0.3810000000000001 -0.3840000000000001,1.003 0,1.3900000000000001 l0.7080000000000002,0.7100000000000002 L26.25215941619873,51.50996164703369 l-0.3130000000000001,-0.3160000000000001 c-0.6000000000000002,-0.5950000000000002 -1.565,-0.5900000000000002 -2.162,0.009000000000000006 l-2.866,2.864 c-1.033,1.03 -1.807,2.221 -2.3280000000000003,3.488 l-7.617,0.6680000000000003 c-0.4450000000000001,0.10400000000000002 -1.272,1.1320000000000001 -1.2530000000000001,3.3970000000000002 c0.018000000000000006,2.266 0.808,3.297 1.2530000000000001,3.404 l7.408,0.6440000000000002 l-4.006,4.787 c-0.23600000000000004,0.3920000000000001 -0.09400000000000006,1.7040000000000002 1.521,3.294 c1.614,1.588 2.899,1.7590000000000003 3.291,1.5190000000000001 l5.152,-3.477 l0.7330000000000002,8.422 c0.10600000000000002,0.4430000000000001 1.138,1.271 3.401,1.251 c2.268,-0.017000000000000008 3.295,-0.806 3.401,-1.251 l0.7540000000000002,-8.659 c1.26,-0.522 2.439,-1.291 3.466,-2.317 l2.862,-2.861 c0.5960000000000002,-0.5990000000000002 0.5920000000000002,-1.57 -0.007000000000000004,-2.161 l-0.3100000000000001,-0.3100000000000001 l0.8960000000000002,-0.8940000000000002 c1.737,1.192 3.838,1.8940000000000001 6.105,1.8940000000000001 c0.6760000000000004,0 1.3330000000000002,-0.06700000000000003 1.9729999999999999,-0.18600000000000005 c1.741,2.557 4.237,6.882 5.579,12.639 c0.4280000000000001,1.834 0.799,3.811 0.8630000000000002,5.954 h5.851 c1.071,0 1.9380000000000002,0.8650000000000002 1.9380000000000002,1.9340000000000002 c0,1.071 -0.8670000000000002,1.939 -1.9380000000000002,1.939 H26.61315941619873 h-5.908 c-1.513,0 -2.7350000000000003,1.224 -2.7350000000000003,2.737 c0,1.509 1.223,2.732 2.7350000000000003,2.732 h31.183 l-0.003000000000000002,0.010000000000000004 c-1.771,3.1550000000000002 -4.535,5.657 -7.907,7.037 c-11.488,4.706 -21.246,5.298 -29.23,5.9 c-1.7320000000000002,0 -3.14,1.404 -3.14,3.136 c0,1.738 1.408,3.222 3.14,3.222 l70.211,0.003000000000000002 c2.942,0 5.328,-2.3890000000000002 5.328,-5.3260000000000005 C90.28815941619872,103.69096164703369 87.90215941619873,101.30496164703369 84.96015941619874,101.30496164703369 zM63.26615941619873,22.307961647033693 l2.373,-2.374 c0.21700000000000005,-0.21200000000000005 0.539,-0.23 0.782,-0.07400000000000002 l0.8840000000000002,0.8820000000000002 c0.15800000000000006,0.24600000000000005 0.14100000000000001,0.5710000000000002 -0.07500000000000002,0.785 l-2.373,2.372 c-0.24600000000000005,0.24300000000000005 -0.6450000000000002,0.24500000000000005 -0.8970000000000002,0 l-0.6930000000000004,-0.6970000000000004 C63.02215941619873,22.95796164703369 63.02215941619873,22.554961647033693 63.26615941619873,22.307961647033693 zM23.96215941619873,58.07396164703369 c-1.9620000000000002,1.963 -2.987,4.501 -3.096,7.075 c-1.264,-2.915 -0.7130000000000002,-6.426 1.6680000000000001,-8.815 l2.525,-2.515 l1.578,1.58 L23.96215941619873,58.07396164703369 zM46.88215941619873,56.54896164703369 c-0.8980000000000002,0.4190000000000001 -1.832,0.5690000000000002 -2.701,0.509 l0.005000000000000002,0.003000000000000002 c-0.273,-0.002000000000000001 -0.555,0.11000000000000003 -0.7460000000000002,0.3470000000000002 c-0.3060000000000001,0.3760000000000001 -0.257,0.901 0.10300000000000002,1.186 c0.8190000000000002,0.7200000000000002 1.7970000000000002,1.175 2.805,1.314 h0.003000000000000002 c0.06500000000000003,0.003000000000000002 0.135,0.016000000000000007 0.19100000000000006,0.06000000000000002 c0.13,0.101 0.14800000000000005,0.2920000000000001 0.041000000000000016,0.4260000000000001 c-0.06900000000000003,0.08200000000000003 -0.16700000000000007,0.12200000000000003 -0.265,0.11700000000000003 l-0.005000000000000002,0.011000000000000006 c-2.23,0.2880000000000001 -4.567,-1.091 -5.618,-3.5140000000000002 c-0.804,-1.879 -0.6560000000000002,-3.896 0.22400000000000006,-5.429 c0.521,-1.061 1.455,-1.992 2.6950000000000003,-2.559 c2.487,-1.1520000000000001 5.224,-0.3850000000000001 6.13,1.6880000000000004 C50.64715941619873,52.794961647033695 49.366159416198734,55.40596164703369 46.88215941619873,56.54896164703369 zM51.07215941619873,42.89996164703369 c0.4140000000000001,0.19500000000000006 0.5820000000000002,0.6860000000000004 0.3860000000000001,1.093 c-0.201,0.4080000000000001 -0.6880000000000004,0.5790000000000002 -1.093,0.3830000000000001 l-0.006000000000000004,-0.003000000000000002 c-1.582,-0.776 -3.257,-1.123 -4.905,-1.091 l-0.011000000000000006,0.011000000000000006 c-4.014,0.06300000000000003 -7.492,2.306 -9.302,5.601 c0,0 -0.005000000000000002,0.002000000000000001 -0.005000000000000002,0.006000000000000004 c-0.8230000000000002,1.497 -1.3010000000000002,3.208 -1.3290000000000002,5.026 l-2.633,2.6350000000000002 c-0.24900000000000005,0.24900000000000005 -0.6490000000000002,0.25 -0.8970000000000002,0 l-2.7560000000000002,-2.755 c-0.24900000000000005,-0.251 -0.24900000000000005,-0.6480000000000002 0,-0.9 L57.44615941619873,23.98096164703369 c0.21400000000000005,-0.21400000000000005 0.541,-0.234 0.78,-0.07900000000000003 l2.947,2.95 c0.15900000000000006,0.24500000000000005 0.138,0.5650000000000002 -0.07400000000000002,0.782 L47.01715941619873,41.71796164703369 C48.39115941619873,41.87196164703369 49.76215941619873,42.255961647033686 51.07215941619873,42.89996164703369 z" id="svg_1" class="" fill="#ffffff" fill-opacity="1"/><text x="0" y="115" fill="#000000" font-size="5px" font-weight="bold" font-family="'Helvetica Neue', Helvetica, Arial-Unicode, Arial, Sans-serif" id="svg_2" class="" opacity="0">Created by Scott Lewis</text><text x="0" y="120" fill="#000000" font-size="5px" font-weight="bold" font-family="'Helvetica Neue', Helvetica, Arial-Unicode, Arial, Sans-serif" id="svg_3" class="" opacity="0">from the Noun Project</text></g></svg>