<svg id="svg" version="1.1" width="500" height="500"  xmlns="http://www.w3.org/2000/svg" xmlns:xlink="http://www.w3.org/1999/xlink" style="display: block"><g id="svgg"><path id="path0" d="M229.248 1.885 C 228.130 2.922,226.631 5.172,225.917 6.885 C 225.204 8.598,224.391 10.180,224.110 10.400 C 223.830 10.620,222.913 12.150,222.074 13.800 C 220.676 16.549,218.400 17.911,218.400 16.000 C 218.400 15.560,216.420 15.200,214.000 15.200 C 211.580 15.200,209.600 15.475,209.600 15.810 C 209.600 16.146,208.819 16.776,207.865 17.210 C 206.911 17.645,205.741 18.720,205.265 19.600 C 204.789 20.480,204.163 21.381,203.873 21.602 C 203.583 21.824,202.701 23.624,201.915 25.602 C 201.128 27.581,200.037 29.654,199.491 30.208 C 198.944 30.763,198.043 32.473,197.488 34.008 C 196.933 35.544,196.227 36.800,195.920 36.800 C 195.612 36.800,194.713 38.600,193.922 40.800 C 193.131 43.000,192.231 44.800,191.922 44.800 C 191.613 44.800,190.713 46.600,189.922 48.800 C 189.131 51.000,188.231 52.800,187.922 52.800 C 187.613 52.800,186.713 54.600,185.922 56.800 C 185.131 59.000,184.220 60.800,183.897 60.800 C 183.575 60.800,180.871 65.750,177.888 71.800 C 174.906 77.850,172.246 82.980,171.978 83.200 C 171.709 83.420,170.852 85.219,170.072 87.198 C 169.293 89.176,168.382 90.976,168.048 91.198 C 167.714 91.419,165.877 94.840,163.966 98.800 C 162.054 102.760,160.257 106.180,159.972 106.400 C 159.687 106.620,158.807 108.510,158.018 110.600 C 157.229 112.690,156.329 114.400,156.019 114.400 C 155.710 114.400,154.968 115.878,154.372 117.685 C 153.776 119.492,152.894 121.121,152.412 121.306 C 151.930 121.491,150.841 123.433,149.992 125.621 C 149.143 127.810,148.203 129.600,147.904 129.600 C 147.605 129.600,146.713 131.400,145.922 133.600 C 145.131 135.800,144.231 137.600,143.922 137.600 C 143.613 137.600,142.713 139.400,141.922 141.600 C 141.131 143.800,140.244 145.600,139.951 145.600 C 139.657 145.600,138.799 147.220,138.043 149.200 C 137.286 151.180,136.374 152.800,136.014 152.800 C 135.655 152.800,134.713 154.600,133.922 156.800 C 133.131 159.000,132.244 160.800,131.951 160.800 C 130.538 160.800,128.632 168.358,128.981 172.571 C 129.358 177.122,132.728 181.600,135.775 181.600 C 136.412 181.600,136.795 181.870,136.626 182.200 C 136.457 182.530,135.476 184.600,134.446 186.800 C 133.416 189.000,132.199 191.041,131.742 191.336 C 128.352 193.525,131.700 206.400,135.659 206.400 C 136.224 206.400,137.162 206.876,137.743 207.458 C 138.325 208.039,140.511 209.168,142.601 209.966 C 144.690 210.764,146.404 211.638,146.409 211.909 C 146.414 212.179,147.944 213.115,149.809 213.988 C 151.674 214.861,153.449 215.928,153.753 216.359 C 154.798 217.839,165.515 217.953,166.076 216.490 C 166.348 215.780,167.019 215.200,167.566 215.200 C 168.113 215.200,169.964 212.338,171.680 208.840 C 174.937 202.201,176.311 201.226,178.842 203.756 C 182.509 207.423,194.400 204.750,194.400 200.259 C 194.400 199.649,194.900 198.958,195.511 198.723 C 196.122 198.489,197.232 196.700,197.977 194.749 C 198.722 192.797,199.638 191.200,200.012 191.200 C 200.386 191.200,200.918 190.487,201.195 189.616 C 201.697 188.033,206.552 179.513,207.814 178.000 C 208.180 177.560,208.741 176.519,209.059 175.687 C 209.651 174.135,220.426 174.268,221.566 175.841 C 221.805 176.171,224.790 177.122,228.200 177.954 C 231.610 178.787,234.400 179.696,234.400 179.976 C 234.400 180.255,236.200 181.131,238.400 181.922 C 240.600 182.713,242.400 183.618,242.400 183.932 C 242.400 184.246,243.649 185.099,245.175 185.827 C 248.411 187.370,249.025 187.890,257.787 196.497 C 264.178 202.776,265.787 204.652,266.965 207.200 C 267.270 207.860,268.167 209.098,268.960 209.951 C 269.752 210.804,270.400 211.948,270.400 212.494 C 270.400 213.039,270.905 213.991,271.523 214.608 C 272.690 215.776,275.200 222.433,275.200 224.361 C 275.200 224.969,275.544 225.587,275.965 225.733 C 279.641 227.015,279.765 266.757,276.102 269.600 C 275.819 269.820,274.899 271.980,274.059 274.400 C 273.219 276.820,272.303 278.980,272.024 279.200 C 271.745 279.420,270.856 281.018,270.049 282.750 C 269.243 284.483,268.268 286.283,267.884 286.750 C 267.500 287.218,265.751 289.448,263.999 291.707 C 258.542 298.740,250.965 305.854,247.800 306.917 C 247.030 307.175,246.400 307.667,246.400 308.009 C 246.400 308.822,233.342 315.200,231.678 315.200 C 230.975 315.200,230.400 315.501,230.400 315.869 C 230.400 316.751,220.168 319.200,216.486 319.200 C 214.898 319.200,213.600 319.560,213.600 320.000 C 213.600 320.474,210.667 320.800,206.400 320.800 C 202.133 320.800,199.200 320.474,199.200 320.000 C 199.200 319.560,198.285 319.200,197.166 319.200 C 194.377 319.200,182.898 316.784,182.402 316.093 C 182.181 315.785,180.422 315.025,178.494 314.403 C 176.566 313.782,174.580 312.897,174.082 312.437 C 173.583 311.977,171.741 310.884,169.988 310.008 C 168.235 309.132,166.512 307.962,166.160 307.408 C 165.808 306.854,165.028 306.400,164.426 306.400 C 162.521 306.400,148.243 291.538,146.022 287.243 C 145.327 285.899,144.479 284.800,144.137 284.800 C 143.796 284.800,142.869 283.000,142.078 280.800 C 141.287 278.600,140.354 276.800,140.006 276.800 C 139.658 276.800,139.137 275.810,138.849 274.600 C 138.560 273.390,138.142 271.787,137.920 271.037 C 137.547 269.781,139.198 269.655,158.979 269.437 C 175.026 269.260,180.740 268.941,181.621 268.173 C 182.269 267.608,183.520 266.647,184.400 266.039 C 185.849 265.037,186.025 263.866,186.260 253.665 L 186.521 242.398 184.122 239.999 L 181.723 237.600 124.662 237.625 C 67.122 237.651,64.800 237.757,64.800 240.345 C 64.800 240.658,64.260 241.454,63.600 242.114 C 62.662 243.053,62.400 245.490,62.400 253.297 L 62.400 263.279 65.275 266.240 C 68.070 269.119,68.331 269.208,74.789 269.479 L 81.429 269.757 82.412 276.079 C 82.953 279.555,83.639 282.400,83.938 282.400 C 84.236 282.400,85.152 285.100,85.974 288.400 C 86.795 291.700,87.702 294.400,87.988 294.400 C 88.274 294.400,89.132 296.380,89.895 298.800 C 90.658 301.220,91.552 303.200,91.883 303.200 C 92.213 303.200,93.131 305.000,93.922 307.200 C 94.713 309.400,95.600 311.200,95.892 311.200 C 96.184 311.200,97.046 312.638,97.807 314.396 C 98.569 316.153,99.913 318.403,100.796 319.396 C 103.731 322.697,104.597 323.793,104.900 324.589 C 106.291 328.247,124.141 346.304,130.147 350.128 C 133.716 352.401,133.688 352.869,129.735 356.810 C 124.624 361.906,121.679 365.657,121.107 367.800 C 120.843 368.790,120.354 369.600,120.022 369.600 C 119.689 369.600,118.771 371.310,117.982 373.400 C 117.193 375.490,116.324 377.380,116.052 377.600 C 113.709 379.492,112.015 392.602,113.649 396.189 C 115.444 400.128,112.871 400.034,211.853 399.810 L 304.764 399.600 306.982 397.380 C 309.362 394.998,310.261 386.201,308.252 384.953 C 307.762 384.649,306.722 382.420,305.942 380.000 C 305.162 377.580,304.258 375.419,303.934 375.198 C 303.610 374.976,302.699 373.176,301.910 371.198 C 301.121 369.219,299.828 366.902,299.038 366.049 C 298.247 365.196,297.600 364.223,297.600 363.886 C 297.600 362.924,287.432 352.800,286.465 352.800 C 285.989 352.800,285.600 352.260,285.600 351.600 C 285.600 350.940,285.929 350.400,286.332 350.400 C 288.300 350.400,307.910 330.899,312.000 324.875 C 313.540 322.607,315.234 320.264,315.764 319.668 C 317.193 318.064,319.787 313.679,321.721 309.600 C 322.659 307.620,323.692 305.820,324.016 305.600 C 324.340 305.380,325.274 303.310,326.090 301.000 C 326.907 298.690,327.807 296.800,328.090 296.800 C 328.372 296.800,329.257 294.280,330.056 291.200 C 330.855 288.120,331.766 285.600,332.080 285.600 C 332.395 285.600,333.252 282.090,333.986 277.800 C 334.719 273.510,335.743 269.135,336.260 268.078 C 337.637 265.263,337.582 226.261,336.200 225.800 C 335.650 225.617,335.201 224.507,335.202 223.333 C 335.204 220.311,332.690 206.880,332.032 206.400 C 331.730 206.180,330.841 203.678,330.056 200.840 C 329.270 198.002,328.167 194.942,327.603 194.040 C 327.039 193.138,326.126 190.960,325.573 189.200 C 325.020 187.440,324.340 185.820,324.062 185.600 C 323.784 185.380,322.881 183.670,322.056 181.800 C 321.232 179.930,320.306 178.400,319.999 178.400 C 319.692 178.400,318.773 176.780,317.957 174.800 C 317.140 172.820,316.195 171.200,315.857 171.200 C 315.518 171.200,314.673 170.101,313.978 168.757 C 311.690 164.334,290.223 142.159,287.343 141.245 C 286.384 140.941,285.600 140.373,285.600 139.984 C 285.600 139.594,284.262 138.640,282.627 137.864 C 280.991 137.088,279.011 135.811,278.227 135.027 C 277.442 134.242,276.286 133.600,275.657 133.600 C 275.029 133.600,274.038 133.124,273.457 132.542 C 272.875 131.961,270.689 130.832,268.599 130.034 C 266.510 129.236,264.800 128.316,264.800 127.990 C 264.800 127.663,262.280 126.743,259.200 125.944 C 256.120 125.145,253.600 124.239,253.600 123.931 C 253.600 123.622,250.090 122.730,245.800 121.950 C 241.510 121.169,237.722 120.294,237.382 120.007 C 236.765 119.485,238.873 113.559,239.945 112.800 C 240.256 112.580,241.148 110.781,241.928 108.802 C 242.707 106.824,243.618 105.024,243.952 104.802 C 244.286 104.581,246.123 101.160,248.034 97.200 C 249.946 93.240,251.743 89.820,252.028 89.600 C 252.313 89.380,253.193 87.490,253.982 85.400 C 254.771 83.310,255.657 81.600,255.951 81.600 C 256.244 81.600,257.131 79.800,257.922 77.600 C 258.713 75.400,259.649 73.600,260.001 73.600 C 260.353 73.600,261.307 71.981,262.121 70.003 C 262.934 68.025,263.834 66.405,264.120 66.403 C 264.405 66.401,265.287 64.600,266.078 62.400 C 266.869 60.200,267.770 58.400,268.080 58.400 C 269.148 58.400,270.400 53.351,270.400 49.042 C 270.400 44.871,267.972 40.800,265.483 40.800 C 264.160 40.800,264.832 38.559,268.000 32.400 C 272.887 22.899,272.129 15.708,266.008 13.494 C 264.463 12.935,263.200 12.243,263.200 11.955 C 263.200 11.667,260.050 9.858,256.200 7.935 C 252.350 6.012,249.020 4.230,248.800 3.975 C 245.432 0.069,232.679 -1.294,229.248 1.885 M217.673 345.875 C 221.340 346.993,226.400 350.846,226.400 352.521 C 226.400 353.052,226.953 354.039,227.630 354.716 C 229.096 356.181,229.469 364.977,228.085 365.438 C 227.598 365.601,227.200 366.214,227.200 366.802 C 227.200 368.975,224.397 372.652,221.640 374.096 C 220.078 374.915,218.581 375.887,218.312 376.258 C 217.422 377.487,208.075 376.990,206.727 375.642 C 206.044 374.959,205.071 374.400,204.563 374.400 C 202.566 374.400,198.456 368.540,197.520 364.356 C 194.814 352.263,205.744 342.240,217.673 345.875 " stroke="none" fill="#000000" fill-rule="evenodd"></path><path id="path1" d="M229.248 1.885 C 228.130 2.922,226.631 5.172,225.917 6.885 C 225.204 8.598,224.391 10.180,224.110 10.400 C 223.830 10.620,222.913 12.150,222.074 13.800 C 220.676 16.549,218.400 17.911,218.400 16.000 C 218.400 15.560,216.420 15.200,214.000 15.200 C 211.580 15.200,209.600 15.475,209.600 15.810 C 209.600 16.146,208.819 16.776,207.865 17.210 C 206.911 17.645,205.741 18.720,205.265 19.600 C 204.789 20.480,204.163 21.381,203.873 21.602 C 203.583 21.824,202.701 23.624,201.915 25.602 C 201.128 27.581,200.037 29.654,199.491 30.208 C 198.944 30.763,198.043 32.473,197.488 34.008 C 196.933 35.544,196.227 36.800,195.920 36.800 C 195.612 36.800,194.713 38.600,193.922 40.800 C 193.131 43.000,192.231 44.800,191.922 44.800 C 191.613 44.800,190.713 46.600,189.922 48.800 C 189.131 51.000,188.231 52.800,187.922 52.800 C 187.613 52.800,186.713 54.600,185.922 56.800 C 185.131 59.000,184.220 60.800,183.897 60.800 C 183.575 60.800,180.871 65.750,177.888 71.800 C 174.906 77.850,172.246 82.980,171.978 83.200 C 171.709 83.420,170.852 85.219,170.072 87.198 C 169.293 89.176,168.382 90.976,168.048 91.198 C 167.714 91.419,165.877 94.840,163.966 98.800 C 162.054 102.760,160.257 106.180,159.972 106.400 C 159.687 106.620,158.807 108.510,158.018 110.600 C 157.229 112.690,156.329 114.400,156.019 114.400 C 155.710 114.400,154.968 115.878,154.372 117.685 C 153.776 119.492,152.894 121.121,152.412 121.306 C 151.930 121.491,150.841 123.433,149.992 125.621 C 149.143 127.810,148.203 129.600,147.904 129.600 C 147.605 129.600,146.713 131.400,145.922 133.600 C 145.131 135.800,144.231 137.600,143.922 137.600 C 143.613 137.600,142.713 139.400,141.922 141.600 C 141.131 143.800,140.244 145.600,139.951 145.600 C 139.657 145.600,138.799 147.220,138.043 149.200 C 137.286 151.180,136.374 152.800,136.014 152.800 C 135.655 152.800,134.713 154.600,133.922 156.800 C 133.131 159.000,132.244 160.800,131.951 160.800 C 130.538 160.800,128.632 168.358,128.981 172.571 C 129.358 177.122,132.728 181.600,135.775 181.600 C 136.412 181.600,136.795 181.870,136.626 182.200 C 136.457 182.530,135.476 184.600,134.446 186.800 C 133.416 189.000,132.199 191.041,131.742 191.336 C 128.352 193.525,131.700 206.400,135.659 206.400 C 136.224 206.400,137.162 206.876,137.743 207.458 C 138.325 208.039,140.511 209.168,142.601 209.966 C 144.690 210.764,146.404 211.638,146.409 211.909 C 146.414 212.179,147.944 213.115,149.809 213.988 C 151.674 214.861,153.449 215.928,153.753 216.359 C 154.798 217.839,165.515 217.953,166.076 216.490 C 166.348 215.780,167.019 215.200,167.566 215.200 C 168.113 215.200,169.964 212.338,171.680 208.840 C 174.937 202.201,176.311 201.226,178.842 203.756 C 182.509 207.423,194.400 204.750,194.400 200.259 C 194.400 199.649,194.900 198.958,195.511 198.723 C 196.122 198.489,197.232 196.700,197.977 194.749 C 198.722 192.797,199.638 191.200,200.012 191.200 C 200.386 191.200,200.918 190.487,201.195 189.616 C 201.697 188.033,206.552 179.513,207.814 178.000 C 208.180 177.560,208.741 176.519,209.059 175.687 C 209.651 174.135,220.426 174.268,221.566 175.841 C 221.805 176.171,224.790 177.122,228.200 177.954 C 231.610 178.787,234.400 179.696,234.400 179.976 C 234.400 180.255,236.200 181.131,238.400 181.922 C 240.600 182.713,242.400 183.618,242.400 183.932 C 242.400 184.246,243.649 185.099,245.175 185.827 C 248.411 187.370,249.025 187.890,257.787 196.497 C 264.178 202.776,265.787 204.652,266.965 207.200 C 267.270 207.860,268.167 209.098,268.960 209.951 C 269.752 210.804,270.400 211.948,270.400 212.494 C 270.400 213.039,270.905 213.991,271.523 214.608 C 272.690 215.776,275.200 222.433,275.200 224.361 C 275.200 224.969,275.544 225.587,275.965 225.733 C 279.641 227.015,279.765 266.757,276.102 269.600 C 275.819 269.820,274.899 271.980,274.059 274.400 C 273.219 276.820,272.303 278.980,272.024 279.200 C 271.745 279.420,270.856 281.018,270.049 282.750 C 269.243 284.483,268.268 286.283,267.884 286.750 C 267.500 287.218,265.751 289.448,263.999 291.707 C 258.542 298.740,250.965 305.854,247.800 306.917 C 247.030 307.175,246.400 307.667,246.400 308.009 C 246.400 308.822,233.342 315.200,231.678 315.200 C 230.975 315.200,230.400 315.501,230.400 315.869 C 230.400 316.751,220.168 319.200,216.486 319.200 C 214.898 319.200,213.600 319.560,213.600 320.000 C 213.600 320.474,210.667 320.800,206.400 320.800 C 202.133 320.800,199.200 320.474,199.200 320.000 C 199.200 319.560,198.285 319.200,197.166 319.200 C 194.377 319.200,182.898 316.784,182.402 316.093 C 182.181 315.785,180.422 315.025,178.494 314.403 C 176.566 313.782,174.580 312.897,174.082 312.437 C 173.583 311.977,171.741 310.884,169.988 310.008 C 168.235 309.132,166.512 307.962,166.160 307.408 C 165.808 306.854,165.028 306.400,164.426 306.400 C 162.521 306.400,148.243 291.538,146.022 287.243 C 145.327 285.899,144.479 284.800,144.137 284.800 C 143.796 284.800,142.869 283.000,142.078 280.800 C 141.287 278.600,140.354 276.800,140.006 276.800 C 139.658 276.800,139.137 275.810,138.849 274.600 C 138.560 273.390,138.142 271.787,137.920 271.037 C 137.547 269.781,139.198 269.655,158.979 269.437 C 175.026 269.260,180.740 268.941,181.621 268.173 C 182.269 267.608,183.520 266.647,184.400 266.039 C 185.849 265.037,186.025 263.866,186.260 253.665 L 186.521 242.398 184.122 239.999 L 181.723 237.600 124.662 237.625 C 67.122 237.651,64.800 237.757,64.800 240.345 C 64.800 240.658,64.260 241.454,63.600 242.114 C 62.662 243.053,62.400 245.490,62.400 253.297 L 62.400 263.279 65.275 266.240 C 68.070 269.119,68.331 269.208,74.789 269.479 L 81.429 269.757 82.412 276.079 C 82.953 279.555,83.639 282.400,83.938 282.400 C 84.236 282.400,85.152 285.100,85.974 288.400 C 86.795 291.700,87.702 294.400,87.988 294.400 C 88.274 294.400,89.132 296.380,89.895 298.800 C 90.658 301.220,91.552 303.200,91.883 303.200 C 92.213 303.200,93.131 305.000,93.922 307.200 C 94.713 309.400,95.600 311.200,95.892 311.200 C 96.184 311.200,97.046 312.638,97.807 314.396 C 98.569 316.153,99.913 318.403,100.796 319.396 C 103.731 322.697,104.597 323.793,104.900 324.589 C 106.291 328.247,124.141 346.304,130.147 350.128 C 133.716 352.401,133.688 352.869,129.735 356.810 C 124.624 361.906,121.679 365.657,121.107 367.800 C 120.843 368.790,120.354 369.600,120.022 369.600 C 119.689 369.600,118.771 371.310,117.982 373.400 C 117.193 375.490,116.324 377.380,116.052 377.600 C 113.709 379.492,112.015 392.602,113.649 396.189 C 115.444 400.128,112.871 400.034,211.853 399.810 L 304.764 399.600 306.982 397.380 C 309.362 394.998,310.261 386.201,308.252 384.953 C 307.762 384.649,306.722 382.420,305.942 380.000 C 305.162 377.580,304.258 375.419,303.934 375.198 C 303.610 374.976,302.699 373.176,301.910 371.198 C 301.121 369.219,299.828 366.902,299.038 366.049 C 298.247 365.196,297.600 364.223,297.600 363.886 C 297.600 362.924,287.432 352.800,286.465 352.800 C 285.989 352.800,285.600 352.260,285.600 351.600 C 285.600 350.940,285.929 350.400,286.332 350.400 C 288.300 350.400,307.910 330.899,312.000 324.875 C 313.540 322.607,315.234 320.264,315.764 319.668 C 317.193 318.064,319.787 313.679,321.721 309.600 C 322.659 307.620,323.692 305.820,324.016 305.600 C 324.340 305.380,325.274 303.310,326.090 301.000 C 326.907 298.690,327.807 296.800,328.090 296.800 C 328.372 296.800,329.257 294.280,330.056 291.200 C 330.855 288.120,331.766 285.600,332.080 285.600 C 332.395 285.600,333.252 282.090,333.986 277.800 C 334.719 273.510,335.743 269.135,336.260 268.078 C 337.637 265.263,337.582 226.261,336.200 225.800 C 335.650 225.617,335.201 224.507,335.202 223.333 C 335.204 220.311,332.690 206.880,332.032 206.400 C 331.730 206.180,330.841 203.678,330.056 200.840 C 329.270 198.002,328.167 194.942,327.603 194.040 C 327.039 193.138,326.126 190.960,325.573 189.200 C 325.020 187.440,324.340 185.820,324.062 185.600 C 323.784 185.380,322.881 183.670,322.056 181.800 C 321.232 179.930,320.306 178.400,319.999 178.400 C 319.692 178.400,318.773 176.780,317.957 174.800 C 317.140 172.820,316.195 171.200,315.857 171.200 C 315.518 171.200,314.673 170.101,313.978 168.757 C 311.690 164.334,290.223 142.159,287.343 141.245 C 286.384 140.941,285.600 140.373,285.600 139.984 C 285.600 139.594,284.262 138.640,282.627 137.864 C 280.991 137.088,279.011 135.811,278.227 135.027 C 277.442 134.242,276.286 133.600,275.657 133.600 C 275.029 133.600,274.038 133.124,273.457 132.542 C 272.875 131.961,270.689 130.832,268.599 130.034 C 266.510 129.236,264.800 128.316,264.800 127.990 C 264.800 127.663,262.280 126.743,259.200 125.944 C 256.120 125.145,253.600 124.239,253.600 123.931 C 253.600 123.622,250.090 122.730,245.800 121.950 C 241.510 121.169,237.722 120.294,237.382 120.007 C 236.765 119.485,238.873 113.559,239.945 112.800 C 240.256 112.580,241.148 110.781,241.928 108.802 C 242.707 106.824,243.618 105.024,243.952 104.802 C 244.286 104.581,246.123 101.160,248.034 97.200 C 249.946 93.240,251.743 89.820,252.028 89.600 C 252.313 89.380,253.193 87.490,253.982 85.400 C 254.771 83.310,255.657 81.600,255.951 81.600 C 256.244 81.600,257.131 79.800,257.922 77.600 C 258.713 75.400,259.649 73.600,260.001 73.600 C 260.353 73.600,261.307 71.981,262.121 70.003 C 262.934 68.025,263.834 66.405,264.120 66.403 C 264.405 66.401,265.287 64.600,266.078 62.400 C 266.869 60.200,267.770 58.400,268.080 58.400 C 269.148 58.400,270.400 53.351,270.400 49.042 C 270.400 44.871,267.972 40.800,265.483 40.800 C 264.160 40.800,264.832 38.559,268.000 32.400 C 272.887 22.899,272.129 15.708,266.008 13.494 C 264.463 12.935,263.200 12.243,263.200 11.955 C 263.200 11.667,260.050 9.858,256.200 7.935 C 252.350 6.012,249.020 4.230,248.800 3.975 C 245.432 0.069,232.679 -1.294,229.248 1.885 M217.673 345.875 C 221.340 346.993,226.400 350.846,226.400 352.521 C 226.400 353.052,226.953 354.039,227.630 354.716 C 229.096 356.181,229.469 364.977,228.085 365.438 C 227.598 365.601,227.200 366.214,227.200 366.802 C 227.200 368.975,224.397 372.652,221.640 374.096 C 220.078 374.915,218.581 375.887,218.312 376.258 C 217.422 377.487,208.075 376.990,206.727 375.642 C 206.044 374.959,205.071 374.400,204.563 374.400 C 202.566 374.400,198.456 368.540,197.520 364.356 C 194.814 352.263,205.744 342.240,217.673 345.875 " stroke="none" fill="#000000" fill-rule="evenodd"></path><path id="path2" d="M229.248 1.885 C 228.130 2.922,226.631 5.172,225.917 6.885 C 225.204 8.598,224.391 10.180,224.110 10.400 C 223.830 10.620,222.913 12.150,222.074 13.800 C 220.676 16.549,218.400 17.911,218.400 16.000 C 218.400 15.560,216.420 15.200,214.000 15.200 C 211.580 15.200,209.600 15.475,209.600 15.810 C 209.600 16.146,208.819 16.776,207.865 17.210 C 206.911 17.645,205.741 18.720,205.265 19.600 C 204.789 20.480,204.163 21.381,203.873 21.602 C 203.583 21.824,202.701 23.624,201.915 25.602 C 201.128 27.581,200.037 29.654,199.491 30.208 C 198.944 30.763,198.043 32.473,197.488 34.008 C 196.933 35.544,196.227 36.800,195.920 36.800 C 195.612 36.800,194.713 38.600,193.922 40.800 C 193.131 43.000,192.231 44.800,191.922 44.800 C 191.613 44.800,190.713 46.600,189.922 48.800 C 189.131 51.000,188.231 52.800,187.922 52.800 C 187.613 52.800,186.713 54.600,185.922 56.800 C 185.131 59.000,184.220 60.800,183.897 60.800 C 183.575 60.800,180.871 65.750,177.888 71.800 C 174.906 77.850,172.246 82.980,171.978 83.200 C 171.709 83.420,170.852 85.219,170.072 87.198 C 169.293 89.176,168.382 90.976,168.048 91.198 C 167.714 91.419,165.877 94.840,163.966 98.800 C 162.054 102.760,160.257 106.180,159.972 106.400 C 159.687 106.620,158.807 108.510,158.018 110.600 C 157.229 112.690,156.329 114.400,156.019 114.400 C 155.710 114.400,154.968 115.878,154.372 117.685 C 153.776 119.492,152.894 121.121,152.412 121.306 C 151.930 121.491,150.841 123.433,149.992 125.621 C 149.143 127.810,148.203 129.600,147.904 129.600 C 147.605 129.600,146.713 131.400,145.922 133.600 C 145.131 135.800,144.231 137.600,143.922 137.600 C 143.613 137.600,142.713 139.400,141.922 141.600 C 141.131 143.800,140.244 145.600,139.951 145.600 C 139.657 145.600,138.799 147.220,138.043 149.200 C 137.286 151.180,136.374 152.800,136.014 152.800 C 135.655 152.800,134.713 154.600,133.922 156.800 C 133.131 159.000,132.244 160.800,131.951 160.800 C 130.538 160.800,128.632 168.358,128.981 172.571 C 129.358 177.122,132.728 181.600,135.775 181.600 C 136.412 181.600,136.795 181.870,136.626 182.200 C 136.457 182.530,135.476 184.600,134.446 186.800 C 133.416 189.000,132.199 191.041,131.742 191.336 C 128.352 193.525,131.700 206.400,135.659 206.400 C 136.224 206.400,137.162 206.876,137.743 207.458 C 138.325 208.039,140.511 209.168,142.601 209.966 C 144.690 210.764,146.404 211.638,146.409 211.909 C 146.414 212.179,147.944 213.115,149.809 213.988 C 151.674 214.861,153.449 215.928,153.753 216.359 C 154.798 217.839,165.515 217.953,166.076 216.490 C 166.348 215.780,167.019 215.200,167.566 215.200 C 168.113 215.200,169.964 212.338,171.680 208.840 C 174.937 202.201,176.311 201.226,178.842 203.756 C 182.509 207.423,194.400 204.750,194.400 200.259 C 194.400 199.649,194.900 198.958,195.511 198.723 C 196.122 198.489,197.232 196.700,197.977 194.749 C 198.722 192.797,199.638 191.200,200.012 191.200 C 200.386 191.200,200.918 190.487,201.195 189.616 C 201.697 188.033,206.552 179.513,207.814 178.000 C 208.180 177.560,208.741 176.519,209.059 175.687 C 209.651 174.135,220.426 174.268,221.566 175.841 C 221.805 176.171,224.790 177.122,228.200 177.954 C 231.610 178.787,234.400 179.696,234.400 179.976 C 234.400 180.255,236.200 181.131,238.400 181.922 C 240.600 182.713,242.400 183.618,242.400 183.932 C 242.400 184.246,243.649 185.099,245.175 185.827 C 248.411 187.370,249.025 187.890,257.787 196.497 C 264.178 202.776,265.787 204.652,266.965 207.200 C 267.270 207.860,268.167 209.098,268.960 209.951 C 269.752 210.804,270.400 211.948,270.400 212.494 C 270.400 213.039,270.905 213.991,271.523 214.608 C 272.690 215.776,275.200 222.433,275.200 224.361 C 275.200 224.969,275.544 225.587,275.965 225.733 C 279.641 227.015,279.765 266.757,276.102 269.600 C 275.819 269.820,274.899 271.980,274.059 274.400 C 273.219 276.820,272.303 278.980,272.024 279.200 C 271.745 279.420,270.856 281.018,270.049 282.750 C 269.243 284.483,268.268 286.283,267.884 286.750 C 267.500 287.218,265.751 289.448,263.999 291.707 C 258.542 298.740,250.965 305.854,247.800 306.917 C 247.030 307.175,246.400 307.667,246.400 308.009 C 246.400 308.822,233.342 315.200,231.678 315.200 C 230.975 315.200,230.400 315.501,230.400 315.869 C 230.400 316.751,220.168 319.200,216.486 319.200 C 214.898 319.200,213.600 319.560,213.600 320.000 C 213.600 320.474,210.667 320.800,206.400 320.800 C 202.133 320.800,199.200 320.474,199.200 320.000 C 199.200 319.560,198.285 319.200,197.166 319.200 C 194.377 319.200,182.898 316.784,182.402 316.093 C 182.181 315.785,180.422 315.025,178.494 314.403 C 176.566 313.782,174.580 312.897,174.082 312.437 C 173.583 311.977,171.741 310.884,169.988 310.008 C 168.235 309.132,166.512 307.962,166.160 307.408 C 165.808 306.854,165.028 306.400,164.426 306.400 C 162.521 306.400,148.243 291.538,146.022 287.243 C 145.327 285.899,144.479 284.800,144.137 284.800 C 143.796 284.800,142.869 283.000,142.078 280.800 C 141.287 278.600,140.354 276.800,140.006 276.800 C 139.658 276.800,139.137 275.810,138.849 274.600 C 138.560 273.390,138.142 271.787,137.920 271.037 C 137.547 269.781,139.198 269.655,158.979 269.437 C 175.026 269.260,180.740 268.941,181.621 268.173 C 182.269 267.608,183.520 266.647,184.400 266.039 C 185.849 265.037,186.025 263.866,186.260 253.665 L 186.521 242.398 184.122 239.999 L 181.723 237.600 124.662 237.625 C 67.122 237.651,64.800 237.757,64.800 240.345 C 64.800 240.658,64.260 241.454,63.600 242.114 C 62.662 243.053,62.400 245.490,62.400 253.297 L 62.400 263.279 65.275 266.240 C 68.070 269.119,68.331 269.208,74.789 269.479 L 81.429 269.757 82.412 276.079 C 82.953 279.555,83.639 282.400,83.938 282.400 C 84.236 282.400,85.152 285.100,85.974 288.400 C 86.795 291.700,87.702 294.400,87.988 294.400 C 88.274 294.400,89.132 296.380,89.895 298.800 C 90.658 301.220,91.552 303.200,91.883 303.200 C 92.213 303.200,93.131 305.000,93.922 307.200 C 94.713 309.400,95.600 311.200,95.892 311.200 C 96.184 311.200,97.046 312.638,97.807 314.396 C 98.569 316.153,99.913 318.403,100.796 319.396 C 103.731 322.697,104.597 323.793,104.900 324.589 C 106.291 328.247,124.141 346.304,130.147 350.128 C 133.716 352.401,133.688 352.869,129.735 356.810 C 124.624 361.906,121.679 365.657,121.107 367.800 C 120.843 368.790,120.354 369.600,120.022 369.600 C 119.689 369.600,118.771 371.310,117.982 373.400 C 117.193 375.490,116.324 377.380,116.052 377.600 C 113.709 379.492,112.015 392.602,113.649 396.189 C 115.444 400.128,112.871 400.034,211.853 399.810 L 304.764 399.600 306.982 397.380 C 309.362 394.998,310.261 386.201,308.252 384.953 C 307.762 384.649,306.722 382.420,305.942 380.000 C 305.162 377.580,304.258 375.419,303.934 375.198 C 303.610 374.976,302.699 373.176,301.910 371.198 C 301.121 369.219,299.828 366.902,299.038 366.049 C 298.247 365.196,297.600 364.223,297.600 363.886 C 297.600 362.924,287.432 352.800,286.465 352.800 C 285.989 352.800,285.600 352.260,285.600 351.600 C 285.600 350.940,285.929 350.400,286.332 350.400 C 288.300 350.400,307.910 330.899,312.000 324.875 C 313.540 322.607,315.234 320.264,315.764 319.668 C 317.193 318.064,319.787 313.679,321.721 309.600 C 322.659 307.620,323.692 305.820,324.016 305.600 C 324.340 305.380,325.274 303.310,326.090 301.000 C 326.907 298.690,327.807 296.800,328.090 296.800 C 328.372 296.800,329.257 294.280,330.056 291.200 C 330.855 288.120,331.766 285.600,332.080 285.600 C 332.395 285.600,333.252 282.090,333.986 277.800 C 334.719 273.510,335.743 269.135,336.260 268.078 C 337.637 265.263,337.582 226.261,336.200 225.800 C 335.650 225.617,335.201 224.507,335.202 223.333 C 335.204 220.311,332.690 206.880,332.032 206.400 C 331.730 206.180,330.841 203.678,330.056 200.840 C 329.270 198.002,328.167 194.942,327.603 194.040 C 327.039 193.138,326.126 190.960,325.573 189.200 C 325.020 187.440,324.340 185.820,324.062 185.600 C 323.784 185.380,322.881 183.670,322.056 181.800 C 321.232 179.930,320.306 178.400,319.999 178.400 C 319.692 178.400,318.773 176.780,317.957 174.800 C 317.140 172.820,316.195 171.200,315.857 171.200 C 315.518 171.200,314.673 170.101,313.978 168.757 C 311.690 164.334,290.223 142.159,287.343 141.245 C 286.384 140.941,285.600 140.373,285.600 139.984 C 285.600 139.594,284.262 138.640,282.627 137.864 C 280.991 137.088,279.011 135.811,278.227 135.027 C 277.442 134.242,276.286 133.600,275.657 133.600 C 275.029 133.600,274.038 133.124,273.457 132.542 C 272.875 131.961,270.689 130.832,268.599 130.034 C 266.510 129.236,264.800 128.316,264.800 127.990 C 264.800 127.663,262.280 126.743,259.200 125.944 C 256.120 125.145,253.600 124.239,253.600 123.931 C 253.600 123.622,250.090 122.730,245.800 121.950 C 241.510 121.169,237.722 120.294,237.382 120.007 C 236.765 119.485,238.873 113.559,239.945 112.800 C 240.256 112.580,241.148 110.781,241.928 108.802 C 242.707 106.824,243.618 105.024,243.952 104.802 C 244.286 104.581,246.123 101.160,248.034 97.200 C 249.946 93.240,251.743 89.820,252.028 89.600 C 252.313 89.380,253.193 87.490,253.982 85.400 C 254.771 83.310,255.657 81.600,255.951 81.600 C 256.244 81.600,257.131 79.800,257.922 77.600 C 258.713 75.400,259.649 73.600,260.001 73.600 C 260.353 73.600,261.307 71.981,262.121 70.003 C 262.934 68.025,263.834 66.405,264.120 66.403 C 264.405 66.401,265.287 64.600,266.078 62.400 C 266.869 60.200,267.770 58.400,268.080 58.400 C 269.148 58.400,270.400 53.351,270.400 49.042 C 270.400 44.871,267.972 40.800,265.483 40.800 C 264.160 40.800,264.832 38.559,268.000 32.400 C 272.887 22.899,272.129 15.708,266.008 13.494 C 264.463 12.935,263.200 12.243,263.200 11.955 C 263.200 11.667,260.050 9.858,256.200 7.935 C 252.350 6.012,249.020 4.230,248.800 3.975 C 245.432 0.069,232.679 -1.294,229.248 1.885 M217.673 345.875 C 221.340 346.993,226.400 350.846,226.400 352.521 C 226.400 353.052,226.953 354.039,227.630 354.716 C 229.096 356.181,229.469 364.977,228.085 365.438 C 227.598 365.601,227.200 366.214,227.200 366.802 C 227.200 368.975,224.397 372.652,221.640 374.096 C 220.078 374.915,218.581 375.887,218.312 376.258 C 217.422 377.487,208.075 376.990,206.727 375.642 C 206.044 374.959,205.071 374.400,204.563 374.400 C 202.566 374.400,198.456 368.540,197.520 364.356 C 194.814 352.263,205.744 342.240,217.673 345.875 " stroke="none" fill="#000000" fill-rule="evenodd"></path><path id="path3" d="M229.248 1.885 C 228.130 2.922,226.631 5.172,225.917 6.885 C 225.204 8.598,224.391 10.180,224.110 10.400 C 223.830 10.620,222.913 12.150,222.074 13.800 C 220.676 16.549,218.400 17.911,218.400 16.000 C 218.400 15.560,216.420 15.200,214.000 15.200 C 211.580 15.200,209.600 15.475,209.600 15.810 C 209.600 16.146,208.819 16.776,207.865 17.210 C 206.911 17.645,205.741 18.720,205.265 19.600 C 204.789 20.480,204.163 21.381,203.873 21.602 C 203.583 21.824,202.701 23.624,201.915 25.602 C 201.128 27.581,200.037 29.654,199.491 30.208 C 198.944 30.763,198.043 32.473,197.488 34.008 C 196.933 35.544,196.227 36.800,195.920 36.800 C 195.612 36.800,194.713 38.600,193.922 40.800 C 193.131 43.000,192.231 44.800,191.922 44.800 C 191.613 44.800,190.713 46.600,189.922 48.800 C 189.131 51.000,188.231 52.800,187.922 52.800 C 187.613 52.800,186.713 54.600,185.922 56.800 C 185.131 59.000,184.220 60.800,183.897 60.800 C 183.575 60.800,180.871 65.750,177.888 71.800 C 174.906 77.850,172.246 82.980,171.978 83.200 C 171.709 83.420,170.852 85.219,170.072 87.198 C 169.293 89.176,168.382 90.976,168.048 91.198 C 167.714 91.419,165.877 94.840,163.966 98.800 C 162.054 102.760,160.257 106.180,159.972 106.400 C 159.687 106.620,158.807 108.510,158.018 110.600 C 157.229 112.690,156.329 114.400,156.019 114.400 C 155.710 114.400,154.968 115.878,154.372 117.685 C 153.776 119.492,152.894 121.121,152.412 121.306 C 151.930 121.491,150.841 123.433,149.992 125.621 C 149.143 127.810,148.203 129.600,147.904 129.600 C 147.605 129.600,146.713 131.400,145.922 133.600 C 145.131 135.800,144.231 137.600,143.922 137.600 C 143.613 137.600,142.713 139.400,141.922 141.600 C 141.131 143.800,140.244 145.600,139.951 145.600 C 139.657 145.600,138.799 147.220,138.043 149.200 C 137.286 151.180,136.374 152.800,136.014 152.800 C 135.655 152.800,134.713 154.600,133.922 156.800 C 133.131 159.000,132.244 160.800,131.951 160.800 C 130.538 160.800,128.632 168.358,128.981 172.571 C 129.358 177.122,132.728 181.600,135.775 181.600 C 136.412 181.600,136.795 181.870,136.626 182.200 C 136.457 182.530,135.476 184.600,134.446 186.800 C 133.416 189.000,132.199 191.041,131.742 191.336 C 128.352 193.525,131.700 206.400,135.659 206.400 C 136.224 206.400,137.162 206.876,137.743 207.458 C 138.325 208.039,140.511 209.168,142.601 209.966 C 144.690 210.764,146.404 211.638,146.409 211.909 C 146.414 212.179,147.944 213.115,149.809 213.988 C 151.674 214.861,153.449 215.928,153.753 216.359 C 154.798 217.839,165.515 217.953,166.076 216.490 C 166.348 215.780,167.019 215.200,167.566 215.200 C 168.113 215.200,169.964 212.338,171.680 208.840 C 174.937 202.201,176.311 201.226,178.842 203.756 C 182.509 207.423,194.400 204.750,194.400 200.259 C 194.400 199.649,194.900 198.958,195.511 198.723 C 196.122 198.489,197.232 196.700,197.977 194.749 C 198.722 192.797,199.638 191.200,200.012 191.200 C 200.386 191.200,200.918 190.487,201.195 189.616 C 201.697 188.033,206.552 179.513,207.814 178.000 C 208.180 177.560,208.741 176.519,209.059 175.687 C 209.651 174.135,220.426 174.268,221.566 175.841 C 221.805 176.171,224.790 177.122,228.200 177.954 C 231.610 178.787,234.400 179.696,234.400 179.976 C 234.400 180.255,236.200 181.131,238.400 181.922 C 240.600 182.713,242.400 183.618,242.400 183.932 C 242.400 184.246,243.649 185.099,245.175 185.827 C 248.411 187.370,249.025 187.890,257.787 196.497 C 264.178 202.776,265.787 204.652,266.965 207.200 C 267.270 207.860,268.167 209.098,268.960 209.951 C 269.752 210.804,270.400 211.948,270.400 212.494 C 270.400 213.039,270.905 213.991,271.523 214.608 C 272.690 215.776,275.200 222.433,275.200 224.361 C 275.200 224.969,275.544 225.587,275.965 225.733 C 279.641 227.015,279.765 266.757,276.102 269.600 C 275.819 269.820,274.899 271.980,274.059 274.400 C 273.219 276.820,272.303 278.980,272.024 279.200 C 271.745 279.420,270.856 281.018,270.049 282.750 C 269.243 284.483,268.268 286.283,267.884 286.750 C 267.500 287.218,265.751 289.448,263.999 291.707 C 258.542 298.740,250.965 305.854,247.800 306.917 C 247.030 307.175,246.400 307.667,246.400 308.009 C 246.400 308.822,233.342 315.200,231.678 315.200 C 230.975 315.200,230.400 315.501,230.400 315.869 C 230.400 316.751,220.168 319.200,216.486 319.200 C 214.898 319.200,213.600 319.560,213.600 320.000 C 213.600 320.474,210.667 320.800,206.400 320.800 C 202.133 320.800,199.200 320.474,199.200 320.000 C 199.200 319.560,198.285 319.200,197.166 319.200 C 194.377 319.200,182.898 316.784,182.402 316.093 C 182.181 315.785,180.422 315.025,178.494 314.403 C 176.566 313.782,174.580 312.897,174.082 312.437 C 173.583 311.977,171.741 310.884,169.988 310.008 C 168.235 309.132,166.512 307.962,166.160 307.408 C 165.808 306.854,165.028 306.400,164.426 306.400 C 162.521 306.400,148.243 291.538,146.022 287.243 C 145.327 285.899,144.479 284.800,144.137 284.800 C 143.796 284.800,142.869 283.000,142.078 280.800 C 141.287 278.600,140.354 276.800,140.006 276.800 C 139.658 276.800,139.137 275.810,138.849 274.600 C 138.560 273.390,138.142 271.787,137.920 271.037 C 137.547 269.781,139.198 269.655,158.979 269.437 C 175.026 269.260,180.740 268.941,181.621 268.173 C 182.269 267.608,183.520 266.647,184.400 266.039 C 185.849 265.037,186.025 263.866,186.260 253.665 L 186.521 242.398 184.122 239.999 L 181.723 237.600 124.662 237.625 C 67.122 237.651,64.800 237.757,64.800 240.345 C 64.800 240.658,64.260 241.454,63.600 242.114 C 62.662 243.053,62.400 245.490,62.400 253.297 L 62.400 263.279 65.275 266.240 C 68.070 269.119,68.331 269.208,74.789 269.479 L 81.429 269.757 82.412 276.079 C 82.953 279.555,83.639 282.400,83.938 282.400 C 84.236 282.400,85.152 285.100,85.974 288.400 C 86.795 291.700,87.702 294.400,87.988 294.400 C 88.274 294.400,89.132 296.380,89.895 298.800 C 90.658 301.220,91.552 303.200,91.883 303.200 C 92.213 303.200,93.131 305.000,93.922 307.200 C 94.713 309.400,95.600 311.200,95.892 311.200 C 96.184 311.200,97.046 312.638,97.807 314.396 C 98.569 316.153,99.913 318.403,100.796 319.396 C 103.731 322.697,104.597 323.793,104.900 324.589 C 106.291 328.247,124.141 346.304,130.147 350.128 C 133.716 352.401,133.688 352.869,129.735 356.810 C 124.624 361.906,121.679 365.657,121.107 367.800 C 120.843 368.790,120.354 369.600,120.022 369.600 C 119.689 369.600,118.771 371.310,117.982 373.400 C 117.193 375.490,116.324 377.380,116.052 377.600 C 113.709 379.492,112.015 392.602,113.649 396.189 C 115.444 400.128,112.871 400.034,211.853 399.810 L 304.764 399.600 306.982 397.380 C 309.362 394.998,310.261 386.201,308.252 384.953 C 307.762 384.649,306.722 382.420,305.942 380.000 C 305.162 377.580,304.258 375.419,303.934 375.198 C 303.610 374.976,302.699 373.176,301.910 371.198 C 301.121 369.219,299.828 366.902,299.038 366.049 C 298.247 365.196,297.600 364.223,297.600 363.886 C 297.600 362.924,287.432 352.800,286.465 352.800 C 285.989 352.800,285.600 352.260,285.600 351.600 C 285.600 350.940,285.929 350.400,286.332 350.400 C 288.300 350.400,307.910 330.899,312.000 324.875 C 313.540 322.607,315.234 320.264,315.764 319.668 C 317.193 318.064,319.787 313.679,321.721 309.600 C 322.659 307.620,323.692 305.820,324.016 305.600 C 324.340 305.380,325.274 303.310,326.090 301.000 C 326.907 298.690,327.807 296.800,328.090 296.800 C 328.372 296.800,329.257 294.280,330.056 291.200 C 330.855 288.120,331.766 285.600,332.080 285.600 C 332.395 285.600,333.252 282.090,333.986 277.800 C 334.719 273.510,335.743 269.135,336.260 268.078 C 337.637 265.263,337.582 226.261,336.200 225.800 C 335.650 225.617,335.201 224.507,335.202 223.333 C 335.204 220.311,332.690 206.880,332.032 206.400 C 331.730 206.180,330.841 203.678,330.056 200.840 C 329.270 198.002,328.167 194.942,327.603 194.040 C 327.039 193.138,326.126 190.960,325.573 189.200 C 325.020 187.440,324.340 185.820,324.062 185.600 C 323.784 185.380,322.881 183.670,322.056 181.800 C 321.232 179.930,320.306 178.400,319.999 178.400 C 319.692 178.400,318.773 176.780,317.957 174.800 C 317.140 172.820,316.195 171.200,315.857 171.200 C 315.518 171.200,314.673 170.101,313.978 168.757 C 311.690 164.334,290.223 142.159,287.343 141.245 C 286.384 140.941,285.600 140.373,285.600 139.984 C 285.600 139.594,284.262 138.640,282.627 137.864 C 280.991 137.088,279.011 135.811,278.227 135.027 C 277.442 134.242,276.286 133.600,275.657 133.600 C 275.029 133.600,274.038 133.124,273.457 132.542 C 272.875 131.961,270.689 130.832,268.599 130.034 C 266.510 129.236,264.800 128.316,264.800 127.990 C 264.800 127.663,262.280 126.743,259.200 125.944 C 256.120 125.145,253.600 124.239,253.600 123.931 C 253.600 123.622,250.090 122.730,245.800 121.950 C 241.510 121.169,237.722 120.294,237.382 120.007 C 236.765 119.485,238.873 113.559,239.945 112.800 C 240.256 112.580,241.148 110.781,241.928 108.802 C 242.707 106.824,243.618 105.024,243.952 104.802 C 244.286 104.581,246.123 101.160,248.034 97.200 C 249.946 93.240,251.743 89.820,252.028 89.600 C 252.313 89.380,253.193 87.490,253.982 85.400 C 254.771 83.310,255.657 81.600,255.951 81.600 C 256.244 81.600,257.131 79.800,257.922 77.600 C 258.713 75.400,259.649 73.600,260.001 73.600 C 260.353 73.600,261.307 71.981,262.121 70.003 C 262.934 68.025,263.834 66.405,264.120 66.403 C 264.405 66.401,265.287 64.600,266.078 62.400 C 266.869 60.200,267.770 58.400,268.080 58.400 C 269.148 58.400,270.400 53.351,270.400 49.042 C 270.400 44.871,267.972 40.800,265.483 40.800 C 264.160 40.800,264.832 38.559,268.000 32.400 C 272.887 22.899,272.129 15.708,266.008 13.494 C 264.463 12.935,263.200 12.243,263.200 11.955 C 263.200 11.667,260.050 9.858,256.200 7.935 C 252.350 6.012,249.020 4.230,248.800 3.975 C 245.432 0.069,232.679 -1.294,229.248 1.885 M217.673 345.875 C 221.340 346.993,226.400 350.846,226.400 352.521 C 226.400 353.052,226.953 354.039,227.630 354.716 C 229.096 356.181,229.469 364.977,228.085 365.438 C 227.598 365.601,227.200 366.214,227.200 366.802 C 227.200 368.975,224.397 372.652,221.640 374.096 C 220.078 374.915,218.581 375.887,218.312 376.258 C 217.422 377.487,208.075 376.990,206.727 375.642 C 206.044 374.959,205.071 374.400,204.563 374.400 C 202.566 374.400,198.456 368.540,197.520 364.356 C 194.814 352.263,205.744 342.240,217.673 345.875 " stroke="none" fill="#000000" fill-rule="evenodd"></path><path id="path4" d="M229.248 1.885 C 228.130 2.922,226.631 5.172,225.917 6.885 C 225.204 8.598,224.391 10.180,224.110 10.400 C 223.830 10.620,222.913 12.150,222.074 13.800 C 220.676 16.549,218.400 17.911,218.400 16.000 C 218.400 15.560,216.420 15.200,214.000 15.200 C 211.580 15.200,209.600 15.475,209.600 15.810 C 209.600 16.146,208.819 16.776,207.865 17.210 C 206.911 17.645,205.741 18.720,205.265 19.600 C 204.789 20.480,204.163 21.381,203.873 21.602 C 203.583 21.824,202.701 23.624,201.915 25.602 C 201.128 27.581,200.037 29.654,199.491 30.208 C 198.944 30.763,198.043 32.473,197.488 34.008 C 196.933 35.544,196.227 36.800,195.920 36.800 C 195.612 36.800,194.713 38.600,193.922 40.800 C 193.131 43.000,192.231 44.800,191.922 44.800 C 191.613 44.800,190.713 46.600,189.922 48.800 C 189.131 51.000,188.231 52.800,187.922 52.800 C 187.613 52.800,186.713 54.600,185.922 56.800 C 185.131 59.000,184.220 60.800,183.897 60.800 C 183.575 60.800,180.871 65.750,177.888 71.800 C 174.906 77.850,172.246 82.980,171.978 83.200 C 171.709 83.420,170.852 85.219,170.072 87.198 C 169.293 89.176,168.382 90.976,168.048 91.198 C 167.714 91.419,165.877 94.840,163.966 98.800 C 162.054 102.760,160.257 106.180,159.972 106.400 C 159.687 106.620,158.807 108.510,158.018 110.600 C 157.229 112.690,156.329 114.400,156.019 114.400 C 155.710 114.400,154.968 115.878,154.372 117.685 C 153.776 119.492,152.894 121.121,152.412 121.306 C 151.930 121.491,150.841 123.433,149.992 125.621 C 149.143 127.810,148.203 129.600,147.904 129.600 C 147.605 129.600,146.713 131.400,145.922 133.600 C 145.131 135.800,144.231 137.600,143.922 137.600 C 143.613 137.600,142.713 139.400,141.922 141.600 C 141.131 143.800,140.244 145.600,139.951 145.600 C 139.657 145.600,138.799 147.220,138.043 149.200 C 137.286 151.180,136.374 152.800,136.014 152.800 C 135.655 152.800,134.713 154.600,133.922 156.800 C 133.131 159.000,132.244 160.800,131.951 160.800 C 130.538 160.800,128.632 168.358,128.981 172.571 C 129.358 177.122,132.728 181.600,135.775 181.600 C 136.412 181.600,136.795 181.870,136.626 182.200 C 136.457 182.530,135.476 184.600,134.446 186.800 C 133.416 189.000,132.199 191.041,131.742 191.336 C 128.352 193.525,131.700 206.400,135.659 206.400 C 136.224 206.400,137.162 206.876,137.743 207.458 C 138.325 208.039,140.511 209.168,142.601 209.966 C 144.690 210.764,146.404 211.638,146.409 211.909 C 146.414 212.179,147.944 213.115,149.809 213.988 C 151.674 214.861,153.449 215.928,153.753 216.359 C 154.798 217.839,165.515 217.953,166.076 216.490 C 166.348 215.780,167.019 215.200,167.566 215.200 C 168.113 215.200,169.964 212.338,171.680 208.840 C 174.937 202.201,176.311 201.226,178.842 203.756 C 182.509 207.423,194.400 204.750,194.400 200.259 C 194.400 199.649,194.900 198.958,195.511 198.723 C 196.122 198.489,197.232 196.700,197.977 194.749 C 198.722 192.797,199.638 191.200,200.012 191.200 C 200.386 191.200,200.918 190.487,201.195 189.616 C 201.697 188.033,206.552 179.513,207.814 178.000 C 208.180 177.560,208.741 176.519,209.059 175.687 C 209.651 174.135,220.426 174.268,221.566 175.841 C 221.805 176.171,224.790 177.122,228.200 177.954 C 231.610 178.787,234.400 179.696,234.400 179.976 C 234.400 180.255,236.200 181.131,238.400 181.922 C 240.600 182.713,242.400 183.618,242.400 183.932 C 242.400 184.246,243.649 185.099,245.175 185.827 C 248.411 187.370,249.025 187.890,257.787 196.497 C 264.178 202.776,265.787 204.652,266.965 207.200 C 267.270 207.860,268.167 209.098,268.960 209.951 C 269.752 210.804,270.400 211.948,270.400 212.494 C 270.400 213.039,270.905 213.991,271.523 214.608 C 272.690 215.776,275.200 222.433,275.200 224.361 C 275.200 224.969,275.544 225.587,275.965 225.733 C 279.641 227.015,279.765 266.757,276.102 269.600 C 275.819 269.820,274.899 271.980,274.059 274.400 C 273.219 276.820,272.303 278.980,272.024 279.200 C 271.745 279.420,270.856 281.018,270.049 282.750 C 269.243 284.483,268.268 286.283,267.884 286.750 C 267.500 287.218,265.751 289.448,263.999 291.707 C 258.542 298.740,250.965 305.854,247.800 306.917 C 247.030 307.175,246.400 307.667,246.400 308.009 C 246.400 308.822,233.342 315.200,231.678 315.200 C 230.975 315.200,230.400 315.501,230.400 315.869 C 230.400 316.751,220.168 319.200,216.486 319.200 C 214.898 319.200,213.600 319.560,213.600 320.000 C 213.600 320.474,210.667 320.800,206.400 320.800 C 202.133 320.800,199.200 320.474,199.200 320.000 C 199.200 319.560,198.285 319.200,197.166 319.200 C 194.377 319.200,182.898 316.784,182.402 316.093 C 182.181 315.785,180.422 315.025,178.494 314.403 C 176.566 313.782,174.580 312.897,174.082 312.437 C 173.583 311.977,171.741 310.884,169.988 310.008 C 168.235 309.132,166.512 307.962,166.160 307.408 C 165.808 306.854,165.028 306.400,164.426 306.400 C 162.521 306.400,148.243 291.538,146.022 287.243 C 145.327 285.899,144.479 284.800,144.137 284.800 C 143.796 284.800,142.869 283.000,142.078 280.800 C 141.287 278.600,140.354 276.800,140.006 276.800 C 139.658 276.800,139.137 275.810,138.849 274.600 C 138.560 273.390,138.142 271.787,137.920 271.037 C 137.547 269.781,139.198 269.655,158.979 269.437 C 175.026 269.260,180.740 268.941,181.621 268.173 C 182.269 267.608,183.520 266.647,184.400 266.039 C 185.849 265.037,186.025 263.866,186.260 253.665 L 186.521 242.398 184.122 239.999 L 181.723 237.600 124.662 237.625 C 67.122 237.651,64.800 237.757,64.800 240.345 C 64.800 240.658,64.260 241.454,63.600 242.114 C 62.662 243.053,62.400 245.490,62.400 253.297 L 62.400 263.279 65.275 266.240 C 68.070 269.119,68.331 269.208,74.789 269.479 L 81.429 269.757 82.412 276.079 C 82.953 279.555,83.639 282.400,83.938 282.400 C 84.236 282.400,85.152 285.100,85.974 288.400 C 86.795 291.700,87.702 294.400,87.988 294.400 C 88.274 294.400,89.132 296.380,89.895 298.800 C 90.658 301.220,91.552 303.200,91.883 303.200 C 92.213 303.200,93.131 305.000,93.922 307.200 C 94.713 309.400,95.600 311.200,95.892 311.200 C 96.184 311.200,97.046 312.638,97.807 314.396 C 98.569 316.153,99.913 318.403,100.796 319.396 C 103.731 322.697,104.597 323.793,104.900 324.589 C 106.291 328.247,124.141 346.304,130.147 350.128 C 133.716 352.401,133.688 352.869,129.735 356.810 C 124.624 361.906,121.679 365.657,121.107 367.800 C 120.843 368.790,120.354 369.600,120.022 369.600 C 119.689 369.600,118.771 371.310,117.982 373.400 C 117.193 375.490,116.324 377.380,116.052 377.600 C 113.709 379.492,112.015 392.602,113.649 396.189 C 115.444 400.128,112.871 400.034,211.853 399.810 L 304.764 399.600 306.982 397.380 C 309.362 394.998,310.261 386.201,308.252 384.953 C 307.762 384.649,306.722 382.420,305.942 380.000 C 305.162 377.580,304.258 375.419,303.934 375.198 C 303.610 374.976,302.699 373.176,301.910 371.198 C 301.121 369.219,299.828 366.902,299.038 366.049 C 298.247 365.196,297.600 364.223,297.600 363.886 C 297.600 362.924,287.432 352.800,286.465 352.800 C 285.989 352.800,285.600 352.260,285.600 351.600 C 285.600 350.940,285.929 350.400,286.332 350.400 C 288.300 350.400,307.910 330.899,312.000 324.875 C 313.540 322.607,315.234 320.264,315.764 319.668 C 317.193 318.064,319.787 313.679,321.721 309.600 C 322.659 307.620,323.692 305.820,324.016 305.600 C 324.340 305.380,325.274 303.310,326.090 301.000 C 326.907 298.690,327.807 296.800,328.090 296.800 C 328.372 296.800,329.257 294.280,330.056 291.200 C 330.855 288.120,331.766 285.600,332.080 285.600 C 332.395 285.600,333.252 282.090,333.986 277.800 C 334.719 273.510,335.743 269.135,336.260 268.078 C 337.637 265.263,337.582 226.261,336.200 225.800 C 335.650 225.617,335.201 224.507,335.202 223.333 C 335.204 220.311,332.690 206.880,332.032 206.400 C 331.730 206.180,330.841 203.678,330.056 200.840 C 329.270 198.002,328.167 194.942,327.603 194.040 C 327.039 193.138,326.126 190.960,325.573 189.200 C 325.020 187.440,324.340 185.820,324.062 185.600 C 323.784 185.380,322.881 183.670,322.056 181.800 C 321.232 179.930,320.306 178.400,319.999 178.400 C 319.692 178.400,318.773 176.780,317.957 174.800 C 317.140 172.820,316.195 171.200,315.857 171.200 C 315.518 171.200,314.673 170.101,313.978 168.757 C 311.690 164.334,290.223 142.159,287.343 141.245 C 286.384 140.941,285.600 140.373,285.600 139.984 C 285.600 139.594,284.262 138.640,282.627 137.864 C 280.991 137.088,279.011 135.811,278.227 135.027 C 277.442 134.242,276.286 133.600,275.657 133.600 C 275.029 133.600,274.038 133.124,273.457 132.542 C 272.875 131.961,270.689 130.832,268.599 130.034 C 266.510 129.236,264.800 128.316,264.800 127.990 C 264.800 127.663,262.280 126.743,259.200 125.944 C 256.120 125.145,253.600 124.239,253.600 123.931 C 253.600 123.622,250.090 122.730,245.800 121.950 C 241.510 121.169,237.722 120.294,237.382 120.007 C 236.765 119.485,238.873 113.559,239.945 112.800 C 240.256 112.580,241.148 110.781,241.928 108.802 C 242.707 106.824,243.618 105.024,243.952 104.802 C 244.286 104.581,246.123 101.160,248.034 97.200 C 249.946 93.240,251.743 89.820,252.028 89.600 C 252.313 89.380,253.193 87.490,253.982 85.400 C 254.771 83.310,255.657 81.600,255.951 81.600 C 256.244 81.600,257.131 79.800,257.922 77.600 C 258.713 75.400,259.649 73.600,260.001 73.600 C 260.353 73.600,261.307 71.981,262.121 70.003 C 262.934 68.025,263.834 66.405,264.120 66.403 C 264.405 66.401,265.287 64.600,266.078 62.400 C 266.869 60.200,267.770 58.400,268.080 58.400 C 269.148 58.400,270.400 53.351,270.400 49.042 C 270.400 44.871,267.972 40.800,265.483 40.800 C 264.160 40.800,264.832 38.559,268.000 32.400 C 272.887 22.899,272.129 15.708,266.008 13.494 C 264.463 12.935,263.200 12.243,263.200 11.955 C 263.200 11.667,260.050 9.858,256.200 7.935 C 252.350 6.012,249.020 4.230,248.800 3.975 C 245.432 0.069,232.679 -1.294,229.248 1.885 M217.673 345.875 C 221.340 346.993,226.400 350.846,226.400 352.521 C 226.400 353.052,226.953 354.039,227.630 354.716 C 229.096 356.181,229.469 364.977,228.085 365.438 C 227.598 365.601,227.200 366.214,227.200 366.802 C 227.200 368.975,224.397 372.652,221.640 374.096 C 220.078 374.915,218.581 375.887,218.312 376.258 C 217.422 377.487,208.075 376.990,206.727 375.642 C 206.044 374.959,205.071 374.400,204.563 374.400 C 202.566 374.400,198.456 368.540,197.520 364.356 C 194.814 352.263,205.744 342.240,217.673 345.875 " stroke="none" fill="#777777" fill-rule="evenodd"></path></g></svg>